<?xml version="1.0" encoding="UTF-8" standalone="no"?>
<!-- Created with Inkscape (http://www.inkscape.org/) -->

<svg
   xmlns:dc="http://purl.org/dc/elements/1.1/"
   xmlns:cc="http://creativecommons.org/ns#"
   xmlns:rdf="http://www.w3.org/1999/02/22-rdf-syntax-ns#"
   xmlns:svg="http://www.w3.org/2000/svg"
   xmlns="http://www.w3.org/2000/svg"
   xmlns:sodipodi="http://sodipodi.sourceforge.net/DTD/sodipodi-0.dtd"
   xmlns:inkscape="http://www.inkscape.org/namespaces/inkscape"
   width="1104.6877"
   height="800"
   id="svg2"
   version="1.1"
   inkscape:version="0.48.4 r9939"
   sodipodi:docname="Енот.svg">
  <defs
     id="defs4" />
  <sodipodi:namedview
     id="base"
     pagecolor="#ffffff"
     bordercolor="#666666"
     borderopacity="1.0"
     inkscape:pageopacity="0.0"
     inkscape:pageshadow="2"
     inkscape:zoom="0.7"
     inkscape:cx="142.51136"
     inkscape:cy="264.44977"
     inkscape:document-units="px"
     inkscape:current-layer="g3007"
     showgrid="false"
     fit-margin-top="0"
     fit-margin-left="0"
     fit-margin-right="0"
     fit-margin-bottom="0"
     inkscape:window-width="1920"
     inkscape:window-height="1018"
     inkscape:window-x="-8"
     inkscape:window-y="-8"
     inkscape:window-maximized="1" />
  <metadata
     id="metadata7">
    <rdf:RDF>
      <cc:Work
         rdf:about="">
        <dc:format>image/svg+xml</dc:format>
        <dc:type
           rdf:resource="http://purl.org/dc/dcmitype/StillImage" />
        <dc:title />
      </cc:Work>
    </rdf:RDF>
  </metadata>
  <g
     inkscape:label="Layer 1"
     inkscape:groupmode="layer"
     id="layer1"
     transform="translate(-572.15625,320.70136)">
    <g
       id="g3007">
      <path
         sodipodi:nodetypes="cc"
         inkscape:connector-curvature="0"
         id="path3941"
         d="M 764.93169,-45.222306 C 596.16854,-283.73013 805.01308,-460.14891 976.02859,-169.06583"
         style="fill:#b3b3b3;stroke:none" />
      <path
         sodipodi:nodetypes="cc"
         inkscape:connector-curvature="0"
         id="path3947"
         d="m 1347.5591,-191.58283 c 245.4987,-249.62382 309.5328,121.039522 160.4337,237.83584"
         style="fill:#b3b3b3;stroke:none" />
      <path
         sodipodi:nodetypes="ccc"
         inkscape:connector-curvature="0"
         id="path3949"
         d="m 771.96826,-48.036929 c -85.80628,-131.495911 -79.50353,-293.067561 74.58756,-237.835841 -5.66666,65.77292 31.34106,101.89847 67.55102,153.39707"
         style="fill:#050505;fill-opacity:1;stroke:none" />
      <path
         sodipodi:nodetypes="cc"
         inkscape:connector-curvature="0"
         id="path3951"
         d="m 1374.2981,-177.5097 c 184.1657,-193.19245 266.51,47.30635 108.363,192.801825"
         style="fill:#050505;fill-opacity:1;stroke:none" />
      <path
         sodipodi:nodetypes="sscczccccccs"
         inkscape:connector-curvature="0"
         id="path3936"
         d="M 1179.9746,-276.87589 C 1050.3376,-277.09094 919.61822,-189.63296 804.829,-81.391377 719.71267,-1.1301411 698.08775,1.898587 572.15625,143.33885 l 1.47768,0.12314 C 708.1838,369.06815 839.765,438.51876 1102.7043,444.53894 c 262.9393,6.02017 405.5007,-29.60152 572.7849,-188.71183 l 1.3548,0.12314 c -0.089,-0.39019 -0.1576,-0.78098 -0.2463,-1.16983 0,-0.002 0.2463,-0.24628 0.2463,-0.24628 l -0.3696,-0.18461 C 1644.2296,115.43099 1532.7071,61.248923 1518.6707,-7.6306053 1415.1718,-203.78646 1298.0022,-276.68011 1179.9746,-276.87589 z"
         style="fill:#050505;fill-opacity:1;stroke:none" />
      <path
         sodipodi:nodetypes="ccccccccccc"
         inkscape:connector-curvature="0"
         id="path3943"
         d="M 953.51159,34.994501 C 942.53394,100.08343 868.95848,118.05353 811.37301,99.730895 l 21.1097,23.924305 c -46.17388,5.35861 -74.78678,2.76964 -118.21428,-7.03657 l 33.77551,30.96089 c -52.16551,5.08396 -103.24828,-4.5338 -154.80439,-11.25851 86.10149,-78.142742 199.79429,-129.2460767 291.31372,-170.284827 45.63106,21.76165 144.14073,0.968431 192.30673,-66.490183 -16.8941,56.389149 -90.4109,204.64342 -98.01679,257.8847 l -9.85119,-45.03399 C 948.95967,84.746056 954.40625,68.992193 953.51159,34.994501 z"
         style="fill:#b3b3b3;stroke:none" />
      <path
         sodipodi:nodetypes="cccccccccccc"
         inkscape:connector-curvature="0"
         id="path3945"
         d="m 1095.6795,-102.78572 c -17.4211,55.220328 -40.5091,220.0117 -38.0268,277.10418 18.4478,-55.09449 24.2088,-46.05421 75.9949,-73.18026 -14.3849,-31.597828 7.2284,-28.445447 36.5901,-46.441322 -3.8209,19.383336 -12.7775,33.650437 -23.9243,49.255942 37.7777,38.39225 113.1958,54.2568 149.1752,45.03402 -23.1413,30.85088 28.4728,36.00575 49.4042,41.66343 64.562,17.21838 129.761,14.94372 199.6901,16.03637 -52.1264,-54.59428 -109.0672,-82.52697 -178.7287,-106.955745 -15.5485,-71.339783 -30.1071,-75.924704 -95.6973,-94.2899586 -28.6059,-58.3106614 -36.5234,-44.4447394 -90.068,-18.2950554 -43.5886,50.324933 -67.4274,-10.728141 -84.4094,-89.931601 z"
         style="fill:#b3b3b3;stroke:none" />
      <path
         sodipodi:nodetypes="cscccccccccccc"
         inkscape:connector-curvature="0"
         id="path3953"
         d="m 934.51286,202.4647 c -49.92688,58.39349 -94.14942,108.60212 -80.92048,187.87625 16.69233,100.02841 132.7706,105.62142 208.98592,66.14367 48.6796,-19.08705 100.5347,-28.91717 151.2861,-40.81205 -22.2165,-44.13825 -51.9946,-60.24352 -90.068,-90.77167 l 4.222,-33.07183 -43.6267,-18.99873 11.9621,-34.47916 -42.2194,-3.51829 -0.7036,-44.33035 c -23.3987,22.45996 -26.523,22.4656 -56.29254,29.55357 -4.783,-22.71673 -10.70156,-43.29769 -23.22064,-62.62541 11.1687,12.14922 -28.86909,77.69116 -33.07184,67.551 -2.11097,-7.03655 -6.33292,-22.517 -6.33292,-22.517 z"
         style="fill:#b3b3b3;stroke:none" />
      <path
         sodipodi:nodetypes="ccccccc"
         inkscape:connector-curvature="0"
         id="path3955"
         d="m 928.17995,307.3095 c -17.82646,16.26689 -38.07819,28.75335 -58.40346,41.51572 -10.11703,33.29137 -7.64259,50.20367 4.92559,81.62413 27.06139,13.21322 95.89716,31.13356 118.21426,-0.70365 7.15166,-14.54041 20.97026,-57.70658 12.66586,-71.77296 -20.9766,-9.6345 -8.94193,-40.86649 -18.99877,-44.33035 -11.25849,-3.51827 -58.40348,-6.33289 -58.40348,-6.33289 z"
         style="fill:#000000;stroke:none" />
      <path
         sodipodi:nodetypes="ccc"
         inkscape:connector-curvature="0"
         id="path3957"
         d="m 1123.0928,208.09397 c 16.7095,-66.96259 54.928,-71.29008 113.9923,-49.95962 4.0147,71.35163 -59.7839,79.26148 -113.9923,49.95962 z"
         style="fill:none;stroke:#b3b3b3;stroke-width:4.33452272;stroke-linecap:butt;stroke-linejoin:round;stroke-miterlimit:4;stroke-opacity:1;stroke-dasharray:none;stroke-dashoffset:0" />
      <path
         sodipodi:nodetypes="ccc"
         inkscape:connector-curvature="0"
         id="path3961"
         d="m 870.48014,132.09908 c -17.76556,60.86888 17.64984,69.82327 68.95832,56.99616 1.82515,-40.94112 -25.34358,-80.78605 -68.95832,-56.99616 z"
         style="fill:none;stroke:#b3b3b3;stroke-width:4.33452272;stroke-linecap:butt;stroke-linejoin:round;stroke-miterlimit:4;stroke-opacity:1;stroke-dasharray:none;stroke-dashoffset:0" />
      <path
         d="m 743.21431,308.07648 c 0,1.38071 -2.15863,2.5 -4.82143,2.5 -2.6628,0 -4.82143,-1.11929 -4.82143,-2.5 0,-1.38071 2.15863,-2.5 4.82143,-2.5 2.6628,0 4.82143,1.11929 4.82143,2.5 z"
         sodipodi:ry="2.5"
         sodipodi:rx="4.8214288"
         sodipodi:cy="308.07648"
         sodipodi:cx="738.39288"
         id="path3963"
         style="color:#000000;fill:#b3b3b3;fill-opacity:1;stroke:none;stroke-width:0.30000001;marker:none;visibility:visible;display:inline;overflow:visible;enable-background:accumulate"
         sodipodi:type="arc"
         transform="matrix(1.9702377,0,0,1.9702377,-555.12754,-465.03359)" />
      <path
         d="m 888.57141,320.21933 c 0,1.57796 -3.35786,2.85714 -7.5,2.85714 -4.14213,0 -7.5,-1.27918 -7.5,-2.85714 0,-1.57796 3.35787,-2.85714 7.5,-2.85714 4.14214,0 7.5,1.27918 7.5,2.85714 z"
         sodipodi:ry="2.8571429"
         sodipodi:rx="7.5"
         sodipodi:cy="320.21933"
         sodipodi:cx="881.07141"
         id="path3965"
         style="color:#000000;fill:#b3b3b3;fill-opacity:1;stroke:none;stroke-width:0.30000001;marker:none;visibility:visible;display:inline;overflow:visible;enable-background:accumulate"
         sodipodi:type="arc"
         transform="matrix(1.9702377,0,0,1.9702377,-555.12754,-465.03359)" />
      <path
         d="m 766.42856,411.64789 c 0,3.5504 -5.43654,6.42857 -12.14285,6.42857 -6.70632,0 -12.14286,-2.87817 -12.14286,-6.42857 0,-3.5504 5.43654,-6.42857 12.14286,-6.42857 6.70631,0 12.14285,2.87817 12.14285,6.42857 z"
         sodipodi:ry="6.4285712"
         sodipodi:rx="12.142858"
         sodipodi:cy="411.64789"
         sodipodi:cx="754.28571"
         id="path3967"
         style="color:#000000;fill:#b3b3b3;fill-opacity:1;stroke:none;stroke-width:0.30000001;marker:none;visibility:visible;display:inline;overflow:visible;enable-background:accumulate"
         sodipodi:type="arc"
         transform="matrix(1.9702377,0,0,1.9702377,-555.12754,-465.03359)" />
      <path
         sodipodi:nodetypes="ccc"
         inkscape:connector-curvature="0"
         id="path3969"
         d="m 1113.6892,340.58675 c 118.4846,-77.03944 270.4298,-104.91911 385.1115,-95.53154 -152.8999,-1.67689 -255.1258,30.15114 -374.9115,104.98518"
         style="fill:#b3b3b3;fill-opacity:1;stroke:none" />
      <path
         sodipodi:nodetypes="ccc"
         inkscape:connector-curvature="0"
         id="path3971"
         d="m 1145.0355,354.51844 c 227.5126,-64.91627 401.5953,-47.37539 498.7629,-24.69194 -149.1851,-25.99922 -329.7673,-15.84318 -495.9996,31.42308"
         style="fill:#b3b3b3;fill-opacity:1;stroke:none" />
      <path
         sodipodi:nodetypes="ccc"
         inkscape:connector-curvature="0"
         id="path3973"
         d="m 1164.4403,367.95257 c 263.0535,-52.95467 363.604,-21.59162 492.7275,-5.05423 -166.8515,-30.70724 -331.0155,-27.13603 -492.5593,9.85118"
         style="fill:#b3b3b3;fill-opacity:1;stroke:none" />
      <path
         sodipodi:nodetypes="ccc"
         inkscape:connector-curvature="0"
         id="path3975"
         d="m 1166.9281,378.89889 c 143.66,-14.32534 267.3193,11.35046 394.5652,29.85361 -134.4755,-17.593 -269.8567,-37.79034 -394.0676,-25.87314"
         style="fill:#b3b3b3;fill-opacity:1;stroke:none" />
      <path
         sodipodi:nodetypes="ccc"
         inkscape:connector-curvature="0"
         id="path3977"
         d="m 1175.8842,392.33302 c 92.634,-4.13463 206.039,18.04071 317.9408,38.31211 -108.1697,-14.93371 -219.374,-33.50879 -314.9554,-33.33651"
         style="fill:#b3b3b3;fill-opacity:1;stroke:none" />
      <path
         sodipodi:nodetypes="ccc"
         inkscape:connector-curvature="0"
         id="path3979"
         d="m 874.86031,305.75754 c -25.24605,-33.83408 -64.18179,-67.66818 -98.5169,-101.50227 32.66547,34.94355 72.86061,68.46797 94.53643,105.48276"
         style="fill:#b3b3b3;fill-opacity:1;stroke:none" />
      <path
         sodipodi:nodetypes="ccc"
         inkscape:connector-curvature="0"
         id="path3981"
         d="M 867.66552,308.7168 C 793.22139,248.16302 708.87384,211.37747 629.47785,162.70812 c 78.45877,49.60345 158.80699,91.64906 235.37304,148.82332"
         style="fill:#b3b3b3;fill-opacity:1;stroke:none" />
      <path
         sodipodi:nodetypes="ccc"
         inkscape:connector-curvature="0"
         id="path3983"
         d="M 861.3326,312.93874 C 797.53449,264.57061 723.75591,237.58921 654.10582,201.76105 c 70.21078,37.59279 148.89198,71.2327 206.52313,114.69599"
         style="fill:#b3b3b3;fill-opacity:1;stroke:none" />
      <path
         sodipodi:nodetypes="ccc"
         inkscape:connector-curvature="0"
         id="path3985"
         d="M 859.57347,319.27166 C 785.45501,269.96085 711.33654,239.51798 637.21807,199.65008 711.10691,241.04197 790.6056,274.95402 858.8698,323.84543"
         style="fill:#b3b3b3;fill-opacity:1;stroke:none" />
      <path
         sodipodi:nodetypes="ccc"
         inkscape:connector-curvature="0"
         id="path3987"
         d="m 856.40701,329.8265 c -67.03744,-51.06204 -130.0085,-67.3009 -184.00611,-85.84607 45.02213,15.17867 130.63329,47.83916 183.65428,90.41984"
         style="fill:#b3b3b3;fill-opacity:1;stroke:none" />
      <path
         sodipodi:nodetypes="ccc"
         inkscape:connector-curvature="0"
         id="path3989"
         d="m 857.81433,353.75082 c -65.13407,-23.90365 -128.15868,-38.99329 -195.61647,-52.42241 66.78757,11.19426 129.71273,35.51416 193.5055,57.348"
         style="fill:#b3b3b3;fill-opacity:1;stroke:none" />
    </g>
  </g>
</svg>
